<svg version="1.1" xmlns="http://www.w3.org/2000/svg" width="155" height="211">
<path d="M0 0 C51.15 0 102.3 0 155 0 C155 69.63 155 139.26 155 211 C103.85 211 52.7 211 0 211 C0 141.37 0 71.74 0 0 Z " fill="#3E9DF9" transform="translate(0,0)"/>
<path d="M0 0 C22.44 0 44.88 0 68 0 C68 69.63 68 139.26 68 211 C16.85 211 -34.3 211 -87 211 C-87 210.67 -87 210.34 -87 210 C-86.42145264 209.9906543 -85.84290527 209.98130859 -85.24682617 209.97167969 C-70.15881944 209.66544614 -58.48003648 209.35662395 -47.09765625 198.37109375 C-44.25790307 195.1611679 -42.43083547 192.02033662 -41 188 C-40.66091928 187.08971731 -40.32183857 186.17943462 -39.97248268 185.24156761 C-39.00296303 182.00987663 -38.74015688 179.47495797 -38.7215271 176.11538696 C-38.71036362 174.96281403 -38.69920013 173.81024109 -38.68769836 172.6227417 C-38.68553818 171.37261292 -38.68337799 170.12248413 -38.68115234 168.83447266 C-38.6718459 167.49369711 -38.66167616 166.15292732 -38.65071106 164.81216431 C-38.62347763 161.1845483 -38.6082815 157.55697099 -38.59528303 153.9292798 C-38.57962326 150.13358417 -38.55284214 146.33796721 -38.5272522 142.54232788 C-38.48051472 135.36019919 -38.44374631 128.17805561 -38.41057932 120.99585283 C-38.37232233 112.81686054 -38.32292156 104.63794735 -38.27259517 96.45902181 C-38.16935017 79.63940473 -38.08006567 62.81974372 -38 46 C-32.75306612 45.90044495 -27.50669303 45.8282104 -22.2590332 45.78027344 C-20.47736014 45.76027095 -18.69575177 45.73305977 -16.91430664 45.69824219 C3.29870264 45.3133403 3.29870264 45.3133403 11.3046875 51.89453125 C17.33131776 59.25541547 19.58753935 65.10372869 19.35546875 74.70703125 C18.60732264 81.6376595 15.96948916 88.03051084 11 93 C5.44222021 97.13877218 1.00118526 99.26667882 -5.95703125 99.1953125 C-7.06884766 99.18886719 -8.18066406 99.18242188 -9.32617188 99.17578125 C-11.0519043 99.15064453 -11.0519043 99.15064453 -12.8125 99.125 C-13.98232422 99.11597656 -15.15214844 99.10695313 -16.35742188 99.09765625 C-19.23849053 99.07413732 -22.11913989 99.04126852 -25 99 C-24.93101715 104.17828686 -24.84299943 109.3557744 -24.73754883 114.53344727 C-24.70435346 116.29377355 -24.67630476 118.05420488 -24.65356445 119.81469727 C-24.6199188 122.34957525 -24.5675994 124.88349523 -24.51171875 127.41796875 C-24.50532883 128.20149216 -24.4989389 128.98501556 -24.49235535 129.7922821 C-24.37047883 134.35100949 -23.85871299 137.39340958 -21 141 C-13.42812329 146.04791781 0.40060976 143.53407929 9.02661133 141.97290039 C24.76734258 138.62494866 36.90496715 131.51503409 48 120 C48.59039062 119.44054687 49.18078125 118.88109375 49.7890625 118.3046875 C62.14387686 105.68559903 66.2861216 86.32851155 66.2421875 69.43310547 C65.99486243 50.59002636 58.00469136 34.29374517 44.91796875 20.86328125 C32.46920558 9.08742419 16.76694127 3.33551989 0 1 C0 0.67 0 0.34 0 0 Z " fill="#ebf6ff" transform="translate(87,0)"/>
<path d="M0 0 C0.34432441 24.06714137 0.6515715 48.13455331 0.91375065 72.20273495 C0.96760385 77.13441816 1.02454389 82.06604715 1.08489418 86.99765491 C1.17510199 94.39729979 1.24439345 101.7966988 1.28710938 109.19680786 C1.30390487 111.58853116 1.32771833 113.98021648 1.35888672 116.37179565 C1.40046814 119.67124079 1.41644034 122.96985907 1.42578125 126.26953125 C1.44324905 127.20566254 1.46071686 128.14179382 1.47871399 129.10629272 C1.44319738 140.00115078 -2.24446541 148.15655886 -9.7734375 155.90625 C-17.97260959 163.61634867 -26.60190381 165.50111941 -37.5625 165.1875 C-38.47580078 165.17396484 -39.38910156 165.16042969 -40.33007812 165.14648438 C-42.55403259 165.11155315 -44.77667952 165.06251586 -47 165 C-47.11701059 147.70133728 -47.20507459 130.40279877 -47.25906086 113.10383034 C-47.28479843 105.07087569 -47.31986321 97.03816751 -47.37719727 89.00537109 C-47.42716922 82.00067929 -47.45932332 74.99616606 -47.47044247 67.99130094 C-47.4769381 64.28516036 -47.49211003 60.57953047 -47.52865028 56.87355423 C-47.56919487 52.72748806 -47.56994065 48.58229915 -47.56762695 44.43603516 C-47.58560333 43.21898895 -47.60357971 42.00194275 -47.62210083 40.74801636 C-47.56285252 30.91045234 -44.77893758 23.2726791 -38 16 C-27.23419642 6.1679651 -14.79234086 0 0 0 Z " fill="#0E5F95" transform="translate(48,45)"/>
<path d="M0 0 C22.55779365 -1.1872523 45.05026384 8.28586044 62.20703125 22.3359375 C64.33712523 24.31288747 64.93796501 25.32357997 65.203125 28.21484375 C65.50278079 45.61985111 57.66219041 62.9849403 45.88745117 75.63452148 C30.5699856 91.36243085 11.20848139 97.97831597 -10.375 98.375 C-11.24398926 98.40118408 -12.11297852 98.42736816 -13.00830078 98.4543457 C-17.09287093 98.46505075 -19.40538954 98.35426923 -22.9765625 96.2265625 C-27.19239239 91.58752189 -27.2753498 87.63078703 -27.1953125 81.515625 C-27.1924826 80.70003113 -27.18965271 79.88443726 -27.18673706 79.04412842 C-27.17556558 76.44593472 -27.15046675 73.84808905 -27.125 71.25 C-27.11496627 69.48568207 -27.10584111 67.72135872 -27.09765625 65.95703125 C-27.07563619 61.63788727 -27.04112733 57.31900259 -27 53 C-26.28457031 52.9906543 -25.56914063 52.98130859 -24.83203125 52.97167969 C-21.55401808 52.91761155 -18.27737639 52.83403529 -15 52.75 C-13.87464844 52.73582031 -12.74929687 52.72164062 -11.58984375 52.70703125 C-3.20500955 52.46186066 2.14379376 51.15507783 8.75 45.75 C15.34817287 37.68556649 17.01800917 29.27370174 16 19 C13.89088358 12.05788587 10.03090321 6.99361823 4 3 C2.67852361 2.31012873 1.3477528 1.63701226 0 1 C0 0.67 0 0.34 0 0 Z " fill="#0E5F94" transform="translate(89,46)"/>
<path d="M0 0 C0.33 0 0.66 0 1 0 C1 27.06 1 54.12 1 82 C13.01290409 80.59908559 13.01290409 80.59908559 25 79 C25 78.34 25 77.68 25 77 C26.269553 76.35165346 27.54069706 75.70642185 28.8125 75.0625 C29.87404297 74.52302734 29.87404297 74.52302734 30.95703125 73.97265625 C33 73 33 73 36 72 C36.495 70.515 36.495 70.515 37 69 C37.66 69 38.32 69 39 69 C39.66 67.35 40.32 65.7 41 64 C41.66 64 42.32 64 43 64 C43.144375 63.0925 43.28875 62.185 43.4375 61.25 C43.86409473 58.78523044 44.35074221 56.41152893 45 54 C45.66 54 46.32 54 47 54 C47.10188499 60.95584524 47.17166837 67.91149618 47.21972656 74.86791992 C47.23977282 77.23159985 47.26701719 79.59523061 47.30175781 81.95874023 C47.35058271 85.36714857 47.37303948 88.77489803 47.390625 92.18359375 C47.41127014 93.23083115 47.43191528 94.27806854 47.45318604 95.35704041 C47.45614866 105.16653718 44.53051212 112.07795097 37.84765625 119.21484375 C26.73116762 129.95529893 15.67859332 129 0 129 C0 86.43 0 43.86 0 0 Z " fill="#064A70" transform="translate(1,81)"/>
<path d="M0 0 C0.66 0 1.32 0 2 0 C1.75685185 18.70030308 -1.77009608 34.21091753 -12 50 C-12.99 50 -13.98 50 -15 50 C-15.66 51.32 -16.32 52.64 -17 54 C-17.66 54 -18.32 54 -19 54 C-19.33 54.99 -19.66 55.98 -20 57 C-24.58910906 60.34669173 -29.33775685 61.85467821 -35 61 C-38.511927 58.81480098 -40.5823291 56.86953785 -42 53 C-42.1688051 50.13721069 -42.23274535 47.37564046 -42.1953125 44.515625 C-42.1924826 43.70003113 -42.18965271 42.88443726 -42.18673706 42.04412842 C-42.17556558 39.44593472 -42.15046675 36.84808905 -42.125 34.25 C-42.11496627 32.48568207 -42.10584111 30.72135872 -42.09765625 28.95703125 C-42.07563619 24.63788727 -42.04112733 20.31900259 -42 16 C-41.28457031 15.9906543 -40.56914063 15.98130859 -39.83203125 15.97167969 C-36.55401808 15.91761155 -33.27737639 15.83403529 -30 15.75 C-28.87464844 15.73582031 -27.74929687 15.72164062 -26.58984375 15.70703125 C-18.20576275 15.46188268 -12.73720114 14.2275828 -6.25 8.625 C-3.88696874 5.9785109 -3.88696874 5.9785109 -1.8125 2.6875 C-1.214375 1.800625 -0.61625 0.91375 0 0 Z " fill="#084B71" transform="translate(104,83)"/>
<path d="M0 0 C9.57 0 19.14 0 29 0 C26.88689598 1.05655201 24.77070649 2.10783606 22.6328125 3.11328125 C12.6921511 7.8668374 6.10357493 13.66468446 2.1796875 24.203125 C1.72308598 25.78515281 1.349787 27.39097981 1 29 C0.67 29 0.34 29 0 29 C0 19.43 0 9.86 0 0 Z " fill="#F7FCFD" transform="translate(0,0)"/>
<path d="M0 0 C0.66 0 1.32 0 2 0 C1.67 1.32 1.34 2.64 1 4 C0.01 4 -0.98 4 -2 4 C-3.07525194 6.65228812 -4.09456151 9.28368454 -5 12 C-5.66 12 -6.32 12 -7 12 C-7 14.31 -7 16.62 -7 19 C-7.66 19 -8.32 19 -9 19 C-9 34.84 -9 50.68 -9 67 C-9.33 67 -9.66 67 -10 67 C-10.12746075 59.92011888 -10.21462725 52.84053695 -10.2746582 45.75976562 C-10.29970084 43.3543797 -10.333745 40.94906911 -10.37719727 38.54394531 C-10.4382988 35.07337794 -10.46631363 31.60382228 -10.48828125 28.1328125 C-10.51408768 27.06886261 -10.5398941 26.00491272 -10.56648254 24.90872192 C-10.57018846 14.89651675 -6.96188307 7.15004207 0 0 Z " fill="#418FD5" transform="translate(11,9)"/>
<path d="M0 0 C3.94039865 3.37624466 5.65803396 7.01073301 7.625 11.6875 C7.93058838 12.40574951 8.23617676 13.12399902 8.55102539 13.86401367 C12.26008642 22.78128597 13.32542364 30.32768614 13 40 C10.08391904 37.08391904 10.45038641 33.80163376 10.125 29.875 C9.48308211 23.34906146 8.43077434 18.68222 5 13 C4.62875 11.865625 4.2575 10.73125 3.875 9.5625 C3.28322227 6.84914167 3.28322227 6.84914167 1 6 C0.375 2.9375 0.375 2.9375 0 0 Z " fill="#61A5DE" transform="translate(141,32)"/>
<path d="M0 0 C0.99 0.33 1.98 0.66 3 1 C6.39433074 10.48992757 6.49198361 20.66935876 6.4375 30.625 C6.45683597 31.97266866 6.47701542 33.32032548 6.49804688 34.66796875 C6.49740234 35.94542969 6.49675781 37.22289062 6.49609375 38.5390625 C6.49794678 39.68584473 6.4997998 40.83262695 6.50170898 42.01416016 C5.90157716 45.58574761 4.76828644 46.75585161 2 49 C2.144375 48.46117187 2.28875 47.92234375 2.4375 47.3671875 C5.58993159 33.40016418 5.57778617 17.61476301 1 4 C0.65500725 2.6696358 0.31735993 1.33722532 0 0 Z " fill="#E3F8FC" transform="translate(149,45)"/>
<path d="M0 0 C0.495 1.485 0.495 1.485 1 3 C-1.36474076 6.54711113 -3.19341803 7.20866731 -7 9 C-7.75885498 9.51989502 -8.51770996 10.03979004 -9.29956055 10.57543945 C-12.57187095 12.3016786 -14.7111937 12.34533848 -18.39453125 12.29296875 C-19.59658203 12.28330078 -20.79863281 12.27363281 -22.03710938 12.26367188 C-23.28298828 12.23853516 -24.52886719 12.21339844 -25.8125 12.1875 C-27.71032227 12.16719727 -27.71032227 12.16719727 -29.64648438 12.14648438 C-32.76475643 12.11118318 -35.88216042 12.06186819 -39 12 C-39 11.67 -39 11.34 -39 11 C-38.13217896 10.98598145 -38.13217896 10.98598145 -37.24682617 10.97167969 C-16.82787001 10.62777823 -16.82787001 10.62777823 0 0 Z " fill="#DEF4FA" transform="translate(39,199)"/>
<path d="M0 0 C0.99 0.33 1.98 0.66 3 1 C0.69 3.64 -1.62 6.28 -4 9 C-1.36 9 1.28 9 4 9 C0.40537669 11.25998595 -2.56595675 11.20868087 -6.75 11.125 C-7.92046875 11.10695312 -9.0909375 11.08890625 -10.296875 11.0703125 C-11.63492188 11.03550781 -11.63492188 11.03550781 -13 11 C-11.18175592 9.0503799 -10.19421716 8.06644271 -7.625 7.1875 C-3.95430785 5.52694879 -2.42688353 3.18961835 0 0 Z " fill="#175C89" transform="translate(89,133)"/>
<path d="M0 0 C-0.33 1.32 -0.66 2.64 -1 4 C-1.99 4 -2.98 4 -4 4 C-5.07525194 6.65228812 -6.09456151 9.28368454 -7 12 C-7.66 12 -8.32 12 -9 12 C-9 14.31 -9 16.62 -9 19 C-9.99 19.33 -10.98 19.66 -12 20 C-11.68098203 12.6625867 -8.22781342 6.69351784 -3.4296875 1.203125 C-2 0 -2 0 0 0 Z " fill="#5A9FDE" transform="translate(13,9)"/>
<path d="M0 0 C0.33 0 0.66 0 1 0 C0.7095387 8.4233777 -2.15233403 15.57002434 -6 23 C-6.66 23.33 -7.32 23.66 -8 24 C-7.5484959 20.50084319 -6.44400591 17.71391872 -4.9375 14.5625 C-3.23040009 10.87713629 -2.57764514 8.11795991 -3 4 C-2.34 4 -1.68 4 -1 4 C-0.67 2.68 -0.34 1.36 0 0 Z " fill="#246189" transform="translate(152,83)"/>
<path d="M0 0 C2.77141717 -0.08089542 5.54047819 -0.14044062 8.3125 -0.1875 C9.09818359 -0.21263672 9.88386719 -0.23777344 10.69335938 -0.26367188 C11.45068359 -0.27333984 12.20800781 -0.28300781 12.98828125 -0.29296875 C14.03302612 -0.31653442 14.03302612 -0.31653442 15.09887695 -0.34057617 C17.58237578 0.10432955 18.47101992 1.03357086 20 3 C20 3.66 20 4.32 20 5 C13.4 3.68 6.8 2.36 0 1 C0 0.67 0 0.34 0 0 Z " fill="#DCF3FC" transform="translate(87,0)"/>
<path d="M0 0 C2.475 0.495 2.475 0.495 5 1 C5.02908357 4.41664873 5.04682691 7.8332655 5.0625 11.25 C5.07087891 12.21808594 5.07925781 13.18617187 5.08789062 14.18359375 C5.09111328 15.11816406 5.09433594 16.05273438 5.09765625 17.015625 C5.10289307 17.87446289 5.10812988 18.73330078 5.11352539 19.61816406 C5.00539986 21.88670744 4.63582423 23.82631715 4 26 C3.34 26 2.68 26 2 26 C2.15984375 25.30519531 2.3196875 24.61039063 2.484375 23.89453125 C3.97710841 15.51486872 3.62868225 7.71094978 0 0 Z " fill="#1A5880" transform="translate(102,57)"/>
<path d="M0 0 C7.73380114 0.81408433 15.28082066 3.66209928 21 9 C19.53984709 8.71758359 18.08190207 8.42373386 16.625 8.125 C15.81289062 7.96257813 15.00078125 7.80015625 14.1640625 7.6328125 C12 7 12 7 10 5 C7.68234271 4.28072705 5.34904126 3.6090107 3 3 C3 2.34 3 1.68 3 1 C2.01 0.67 1.02 0.34 0 0 Z " fill="#529CE1" transform="translate(101,4)"/>
<path d="M0 0 C4.5142775 3.66866356 8.50151106 7.33534808 12 12 C12 12.66 12 13.32 12 14 C10 14 10 14 8.375 12.625 C7 11 7 11 7 9 C6.01 9 5.02 9 4 9 C3.896875 8.401875 3.79375 7.80375 3.6875 7.1875 C2.90614947 4.70138466 1.85104584 3.77056558 0 2 C0 1.34 0 0.68 0 0 Z " fill="#549FE4" transform="translate(129,18)"/>
<path d="M0 0 C3.18786625 2.89433681 5.03313319 5.58646816 6.8125 9.5 C7.25207031 10.4384375 7.69164062 11.376875 8.14453125 12.34375 C9.04264645 15.13241822 9.03390407 16.31058083 8 19 C7.66226563 18.14535156 7.32453125 17.29070313 6.9765625 16.41015625 C6.53054687 15.30542969 6.08453125 14.20070313 5.625 13.0625 C5.18414062 11.96035156 4.74328125 10.85820313 4.2890625 9.72265625 C3.28958568 6.88769814 3.28958568 6.88769814 1 6 C0.375 2.9375 0.375 2.9375 0 0 Z " fill="#539CDE" transform="translate(141,32)"/>
<path d="M0 0 C0.33 0.99 0.66 1.98 1 3 C-1.33636221 6.50454332 -3.23337829 7.27363172 -7 9 C-7.99 9.495 -7.99 9.495 -9 10 C-9.99 9.34 -10.98 8.68 -12 8 C-11.20335938 7.63648438 -11.20335938 7.63648438 -10.390625 7.265625 C-6.26007376 5.30587441 -3.02889453 3.53371028 0 0 Z " fill="#D6E7EE" transform="translate(39,199)"/>
<path d="M0 0 C0.66 0 1.32 0 2 0 C1.7589852 6.14587738 1.7589852 6.14587738 -0.40234375 8.578125 C-1.88046971 9.78844931 -3.43647953 10.90220903 -5 12 C-5 10.35 -5 8.7 -5 7 C-3.68 7 -2.36 7 -1 7 C-0.67 4.69 -0.34 2.38 0 0 Z " fill="#0E4867" transform="translate(42,189)"/>
<path d="M0 0 C0.66 0.33 1.32 0.66 2 1 C1.01 3.97 0.02 6.94 -1 10 C-2.65 10.33 -4.3 10.66 -6 11 C-5.47599609 10.18595703 -5.47599609 10.18595703 -4.94140625 9.35546875 C-4.25884766 8.28232422 -4.25884766 8.28232422 -3.5625 7.1875 C-3.11003906 6.47980469 -2.65757813 5.77210938 -2.19140625 5.04296875 C-0.85913661 2.91865448 -0.85913661 2.91865448 0 0 Z " fill="#DDF0F3" transform="translate(46,188)"/>
<path d="M0 0 C0.8125 1.6875 0.8125 1.6875 1 4 C-1.25 6.75 -1.25 6.75 -4 9 C-4.99 9 -5.98 9 -7 9 C-6.57847656 8.51789063 -6.15695313 8.03578125 -5.72265625 7.5390625 C-5.17480469 6.90742187 -4.62695312 6.27578125 -4.0625 5.625 C-3.51722656 4.99851562 -2.97195312 4.37203125 -2.41015625 3.7265625 C-0.93041376 2.04367666 -0.93041376 2.04367666 0 0 Z " fill="#DAEEF4" transform="translate(142,111)"/>
<path d="M0 0 C2.75 -0.25 2.75 -0.25 6 0 C8.375 2 8.375 2 10 4 C9.67 4.99 9.34 5.98 9 7 C7.53515625 5.76302083 6.0703125 4.52604167 4.60546875 3.2890625 C3.1344954 2.10798901 1.56962206 1.04641471 0 0 Z " fill="#26658C" transform="translate(90,47)"/>
<path d="M0 0 C1.33332095 2.6666419 0.67102033 4.16680303 0 7 C-1.37562854 5.71034824 -2.70766393 4.37310707 -4 3 C-4 2.34 -4 1.68 -4 1 C-2.68 0.67 -1.36 0.34 0 0 Z " fill="#1A5270" transform="translate(67,135)"/>
<path d="M0 0 C0.66 0 1.32 0 2 0 C2 2.64 2 5.28 2 8 C1.34 7.67 0.68 7.34 0 7 C0 6.01 0 5.02 0 4 C-0.66 3.67 -1.32 3.34 -2 3 C-1.34 2.01 -0.68 1.02 0 0 Z " fill="#125076" transform="translate(104,83)"/>
<path d="M0 0 C0.6875 1.75 0.6875 1.75 1 4 C-0.4375 6.25 -0.4375 6.25 -2 8 C-2.66 7.67 -3.32 7.34 -4 7 C-2.68 4.69 -1.36 2.38 0 0 Z " fill="#1069AA" transform="translate(7,65)"/>
</svg>
